<?xml version="1.0"?>
<svg xmlns="http://www.w3.org/2000/svg" xmlns:xlink="http://www.w3.org/1999/xlink" xmlns:svgjs="http://svgjs.com/svgjs" version="1.1" width="512" height="512" x="0" y="0" viewBox="0 0 512 512" style="enable-background:new 0 0 512 512" xml:space="preserve" class=""><g><g xmlns="http://www.w3.org/2000/svg"><path d="m476 48h-216a28.031 28.031 0 0 0 -28 28v116h-196a28.031 28.031 0 0 0 -28 28v176a28.031 28.031 0 0 0 28 28h28v40a8 8 0 0 0 13.66 5.66l45.65-45.66h184.69a28.031 28.031 0 0 0 28-28v-116h84.69l45.65 45.66a8 8 0 0 0 13.66-5.66v-40.29a28.036 28.036 0 0 0 24-27.71v-176a28.031 28.031 0 0 0 -28-28zm-156 348a12.01 12.01 0 0 1 -12 12h-188a8.008 8.008 0 0 0 -5.66 2.34l-34.34 34.35v-28.69a8 8 0 0 0 -8-8h-36a12.01 12.01 0 0 1 -12-12v-176a12.01 12.01 0 0 1 12-12h196v44a28.031 28.031 0 0 0 28 28h60zm168-144a12.01 12.01 0 0 1 -12 12h-4a8 8 0 0 0 -8 8v28.69l-34.34-34.35a8.008 8.008 0 0 0 -5.66-2.34h-164a12.01 12.01 0 0 1 -12-12v-176a12.01 12.01 0 0 1 12-12h216a12.01 12.01 0 0 1 12 12z" fill="#a3abb7" data-original="#000000" style="" class=""/><path d="m436 88h-20a8 8 0 0 0 -16 0h-24a8 8 0 0 0 -16 0h-24a8 8 0 0 0 -16 0h-20a20.02 20.02 0 0 0 -20 20v120a20.02 20.02 0 0 0 20 20h136a20.02 20.02 0 0 0 20-20v-120a20.02 20.02 0 0 0 -20-20zm4 140a4 4 0 0 1 -4 4h-136a4 4 0 0 1 -4-4v-92h144zm0-108h-144v-12a4 4 0 0 1 4-4h20a8 8 0 0 0 16 0h24a8 8 0 0 0 16 0h24a8 8 0 0 0 16 0h20a4 4 0 0 1 4 4z" fill="#a3abb7" data-original="#000000" style="" class=""/><path d="m176 288a24 24 0 1 0 24 24 24.028 24.028 0 0 0 -24-24zm0 32a8 8 0 1 1 8-8 8.009 8.009 0 0 1 -8 8z" fill="#a3abb7" data-original="#000000" style="" class=""/><path d="m96 288a24 24 0 1 0 24 24 24.028 24.028 0 0 0 -24-24zm0 32a8 8 0 1 1 8-8 8.009 8.009 0 0 1 -8 8z" fill="#a3abb7" data-original="#000000" style="" class=""/><path d="m232 312a24 24 0 1 0 24-24 24.028 24.028 0 0 0 -24 24zm32 0a8 8 0 1 1 -8-8 8.009 8.009 0 0 1 8 8z" fill="#a3abb7" data-original="#000000" style="" class=""/></g></g></svg>
